<svg version="1.1" xmlns="http://www.w3.org/2000/svg" xmlns:xlink="http://www.w3.org/1999/xlink" preserveAspectRatio="xMidYMid meet" viewBox="344.5639097744361 330.27819548872174 111.73684210526318 91.21804511278197" width="53.87" height="43.61"><g id="svgg"><path id="path0" d="M80.000 200.000 L 80.000 360.000 200.000 360.000 L 320.000 360.000 320.000 200.000 L 320.000 40.000 200.000 40.000 L 80.000 40.000 80.000 200.000 M316.000 160.000 L 316.000 276.000 200.000 276.000 L 84.000 276.000 84.000 160.000 L 84.000 44.000 200.000 44.000 L 316.000 44.000 316.000 160.000 M158.333 113.995 L 158.333 124.000 163.667 124.000 L 169.000 124.000 169.000 159.833 L 169.000 195.667 163.667 195.667 L 158.333 195.667 158.333 205.838 L 158.333 216.009 180.417 215.967 C 192.563 215.944,204.075 215.784,206.000 215.610 C 227.136 213.707,237.951 202.841,239.655 181.797 C 240.196 175.123,239.851 137.679,239.214 133.846 C 236.480 117.398,227.921 108.444,211.833 105.200 C 207.037 104.233,202.789 104.075,180.417 104.033 L 158.333 103.991 158.333 113.995 M202.500 124.342 C 211.571 125.186,216.131 128.778,218.216 136.725 C 218.914 139.386,219.291 172.060,218.694 178.175 C 217.334 192.099,212.064 196.000,194.609 196.000 L 190.000 196.000 190.000 160.000 L 190.000 124.000 194.417 124.000 C 196.846 124.000,200.483 124.154,202.500 124.342 M316.000 318.000 L 316.000 356.000 200.000 356.000 L 84.000 356.000 84.000 318.000 L 84.000 280.000 200.000 280.000 L 316.000 280.000 316.000 318.000 M104.000 306.132 L 104.000 308.667 105.333 308.667 L 106.667 308.667 106.667 317.667 L 106.667 326.667 105.333 326.667 L 104.000 326.667 104.000 329.201 L 104.000 331.735 110.750 331.607 C 122.232 331.388,123.911 329.885,124.246 319.520 C 124.682 306.005,122.933 303.958,110.750 303.727 L 104.000 303.598 104.000 306.132 M171.802 304.250 C 171.902 304.571,172.205 305.883,172.477 307.167 C 172.749 308.450,173.809 313.175,174.833 317.667 C 175.858 322.158,176.918 326.883,177.190 328.167 C 177.462 329.450,177.765 330.762,177.864 331.083 C 178.026 331.604,178.569 331.667,182.939 331.666 L 187.833 331.666 190.924 317.916 C 192.623 310.354,194.011 304.054,194.007 303.917 C 194.003 303.779,192.828 303.667,191.395 303.667 L 188.790 303.667 186.693 313.417 C 183.569 327.940,183.310 329.000,182.882 329.000 C 182.636 329.000,181.506 324.422,179.856 316.750 C 178.408 310.012,177.157 304.313,177.076 304.083 C 176.815 303.346,171.574 303.512,171.802 304.250 M117.350 309.505 C 118.754 310.757,119.000 311.973,119.000 317.667 C 119.000 325.349,118.430 326.398,114.137 326.615 L 111.667 326.740 111.667 317.667 L 111.667 308.594 114.137 308.719 C 116.007 308.813,116.788 309.004,117.350 309.505 M145.833 312.112 C 134.015 316.039,137.691 333.172,150.074 331.878 C 153.223 331.549,155.086 330.533,156.718 328.256 L 157.370 327.345 155.247 326.298 L 153.123 325.251 152.196 326.110 C 149.790 328.340,144.000 326.818,144.000 323.955 C 144.000 323.368,144.396 323.333,151.202 323.333 L 158.404 323.333 158.273 320.750 C 157.949 314.333,151.864 310.108,145.833 312.112 M214.500 312.112 C 202.682 316.039,206.358 333.172,218.741 331.878 C 221.889 331.549,223.753 330.533,225.384 328.256 L 226.037 327.345 223.913 326.298 L 221.790 325.251 220.863 326.110 C 218.457 328.340,212.667 326.818,212.667 323.955 C 212.667 323.368,213.062 323.333,219.869 323.333 L 227.071 323.333 226.940 320.750 C 226.616 314.333,220.531 310.108,214.500 312.112 M248.911 312.029 C 239.851 314.164,238.450 327.038,246.860 330.888 C 252.148 333.309,258.489 331.321,260.846 326.503 C 264.753 318.519,257.696 309.960,248.911 312.029 M282.083 312.310 C 281.487 312.684,281.000 313.142,281.000 313.328 C 281.000 313.514,280.775 313.667,280.500 313.667 C 280.189 313.667,280.000 313.352,280.000 312.833 C 280.000 312.019,279.944 312.000,277.500 312.000 L 275.000 312.000 275.000 321.833 L 275.000 331.667 277.500 331.667 L 280.000 331.667 280.000 324.574 C 280.000 316.907,280.189 316.000,281.786 316.000 C 283.261 316.000,283.333 316.385,283.333 324.233 L 283.333 331.667 285.833 331.667 L 288.333 331.667 288.333 324.385 C 288.333 316.534,288.453 316.000,290.210 316.000 C 291.583 316.000,291.667 316.472,291.667 324.233 L 291.667 331.667 294.187 331.667 L 296.708 331.667 296.604 323.024 C 296.506 314.865,296.461 314.328,295.803 313.440 C 294.348 311.476,290.803 311.166,289.114 312.855 C 288.108 313.862,288.073 313.861,286.960 312.795 C 285.712 311.600,283.557 311.385,282.083 312.310 M150.895 316.689 C 151.896 317.068,153.333 318.268,153.333 318.725 C 153.333 318.876,151.233 319.000,148.667 319.000 C 143.805 319.000,143.514 318.907,144.750 317.745 C 146.191 316.392,148.887 315.928,150.895 316.689 M219.562 316.689 C 220.562 317.068,222.000 318.268,222.000 318.725 C 222.000 318.876,219.900 319.000,217.333 319.000 C 212.472 319.000,212.180 318.907,213.417 317.745 C 214.857 316.392,217.554 315.928,219.562 316.689 M253.860 316.965 C 259.155 319.370,257.229 327.376,251.367 327.326 C 245.500 327.276,244.307 318.360,249.940 316.660 C 251.377 316.227,252.409 316.307,253.860 316.965 " stroke="none" fill="#937beb" fill-rule="evenodd"></path><path id="path1" d="M160.917 124.248 C 162.429 124.310,164.904 124.310,166.417 124.248 C 167.929 124.186,166.692 124.136,163.667 124.136 C 160.642 124.136,159.404 124.186,160.917 124.248 M192.599 124.248 C 194.120 124.310,196.520 124.310,197.932 124.247 C 199.345 124.185,198.100 124.135,195.167 124.135 C 192.233 124.135,191.078 124.186,192.599 124.248 M239.757 140.333 C 239.757 141.158,239.822 141.496,239.902 141.083 C 239.981 140.671,239.981 139.996,239.902 139.583 C 239.822 139.171,239.757 139.508,239.757 140.333 M218.822 159.333 C 218.822 168.958,218.864 172.896,218.916 168.083 C 218.968 163.271,218.968 155.396,218.916 150.583 C 218.864 145.771,218.822 149.708,218.822 159.333 M239.744 179.667 C 239.744 180.308,239.813 180.571,239.896 180.250 C 239.980 179.929,239.980 179.404,239.896 179.083 C 239.813 178.762,239.744 179.025,239.744 179.667 M192.583 195.915 C 194.096 195.976,196.571 195.976,198.083 195.915 C 199.596 195.853,198.358 195.802,195.333 195.802 C 192.308 195.802,191.071 195.853,192.583 195.915 M103.781 306.167 C 103.782 307.633,103.841 308.192,103.911 307.408 C 103.982 306.624,103.981 305.424,103.909 304.741 C 103.837 304.059,103.780 304.700,103.781 306.167 M106.480 317.667 C 106.480 322.708,106.526 324.771,106.583 322.250 C 106.639 319.729,106.639 315.604,106.583 313.083 C 106.526 310.563,106.480 312.625,106.480 317.667 M280.142 324.500 C 280.142 328.533,280.190 330.138,280.249 328.065 C 280.308 325.992,280.307 322.692,280.249 320.732 C 280.190 318.771,280.142 320.467,280.142 324.500 M256.751 321.833 C 256.754 322.567,256.823 322.827,256.902 322.413 C 256.982 321.998,256.979 321.398,256.896 321.079 C 256.812 320.761,256.747 321.100,256.751 321.833 M103.781 329.167 C 103.782 330.633,103.841 331.192,103.911 330.408 C 103.982 329.624,103.981 328.424,103.909 327.741 C 103.837 327.059,103.780 327.700,103.781 329.167 " stroke="none" fill="#4c3c7c" fill-rule="evenodd"></path><path id="path2" d="M168.827 160.000 C 168.827 179.708,168.868 187.771,168.917 177.917 C 168.966 168.063,168.966 151.938,168.917 142.083 C 168.868 132.229,168.827 140.292,168.827 160.000 M111.813 317.667 C 111.813 322.708,111.859 324.771,111.916 322.250 C 111.972 319.729,111.972 315.604,111.916 313.083 C 111.859 310.563,111.813 312.625,111.813 317.667 M288.475 324.667 C 288.475 328.608,288.523 330.221,288.582 328.250 C 288.641 326.279,288.641 323.054,288.582 321.083 C 288.523 319.112,288.475 320.725,288.475 324.667 M241.077 321.667 C 241.077 322.308,241.146 322.571,241.230 322.250 C 241.314 321.929,241.314 321.404,241.230 321.083 C 241.146 320.762,241.077 321.025,241.077 321.667 " stroke="none" fill="#241c3c" fill-rule="evenodd"></path><path id="path3" d="M0.000 200.000 L 0.000 400.000 200.000 400.000 L 400.000 400.000 400.000 200.000 L 400.000 0.000 200.000 0.000 L 0.000 0.000 0.000 200.000 M320.000 200.000 L 320.000 360.000 200.000 360.000 L 80.000 360.000 80.000 200.000 L 80.000 40.000 200.000 40.000 L 320.000 40.000 320.000 200.000 M84.000 160.000 L 84.000 276.000 200.000 276.000 L 316.000 276.000 316.000 160.000 L 316.000 44.000 200.000 44.000 L 84.000 44.000 84.000 160.000 M211.667 104.954 C 227.901 108.470,236.025 116.644,239.209 132.667 C 240.040 136.848,240.295 178.665,239.525 184.567 C 237.341 201.327,229.175 210.868,213.917 214.491 C 208.123 215.866,205.214 216.000,181.180 216.000 L 158.333 216.000 158.333 205.833 L 158.333 195.667 163.500 195.667 L 168.667 195.667 168.667 160.000 L 168.667 124.333 163.500 124.333 L 158.333 124.333 158.333 114.147 L 158.333 103.961 183.250 104.078 C 207.695 104.193,208.233 104.210,211.667 104.954 M190.000 160.003 L 190.000 195.745 197.583 195.574 C 210.967 195.272,215.129 192.758,217.761 183.381 C 218.633 180.273,219.093 143.549,218.321 138.668 C 216.634 128.009,211.774 124.694,197.417 124.409 L 190.000 124.261 190.000 160.003 M84.000 318.000 L 84.000 356.000 200.000 356.000 L 316.000 356.000 316.000 318.000 L 316.000 280.000 200.000 280.000 L 84.000 280.000 84.000 318.000 M119.991 304.833 C 123.592 306.808,124.333 308.998,124.333 317.667 C 124.333 326.335,123.592 328.525,119.991 330.500 L 118.167 331.500 110.917 331.607 L 103.667 331.713 103.667 329.190 L 103.667 326.667 105.000 326.667 L 106.333 326.667 106.333 317.667 L 106.333 308.667 105.000 308.667 L 103.667 308.667 103.667 306.143 L 103.667 303.620 110.917 303.727 L 118.167 303.833 119.991 304.833 M179.847 316.025 C 182.342 327.648,182.775 329.376,183.093 328.990 C 183.164 328.904,184.310 323.733,185.639 317.500 C 186.968 311.267,188.199 305.604,188.374 304.917 L 188.692 303.667 191.535 303.667 C 194.089 303.667,194.360 303.726,194.200 304.250 C 194.101 304.571,193.032 309.258,191.822 314.667 C 190.613 320.075,189.245 326.112,188.784 328.083 L 187.944 331.667 182.882 331.667 L 177.820 331.667 174.735 317.917 C 173.038 310.354,171.653 304.054,171.658 303.917 C 171.663 303.779,172.910 303.667,174.430 303.667 L 177.194 303.667 179.847 316.025 M112.000 317.665 L 112.000 326.759 113.946 326.583 C 118.358 326.183,118.823 325.316,118.812 317.500 C 118.802 309.823,118.456 309.173,114.165 308.772 L 112.000 308.570 112.000 317.665 M152.402 312.185 C 155.935 313.389,158.258 316.660,158.577 320.880 L 158.763 323.333 151.381 323.333 C 143.093 323.333,143.079 323.338,145.118 325.563 C 146.917 327.526,150.997 327.512,152.635 325.538 C 153.004 325.094,153.311 325.159,155.194 326.088 C 157.726 327.337,157.776 327.575,155.894 329.457 C 151.041 334.310,141.287 332.116,139.239 325.712 C 136.406 316.855,143.802 309.254,152.402 312.185 M221.068 312.185 C 224.602 313.389,226.925 316.660,227.244 320.880 L 227.430 323.333 220.048 323.333 C 211.760 323.333,211.746 323.338,213.785 325.563 C 215.583 327.526,219.663 327.512,221.301 325.538 C 221.671 325.094,221.977 325.159,223.860 326.088 C 226.393 327.337,226.442 327.575,224.561 329.457 C 219.708 334.310,209.953 332.116,207.905 325.712 C 205.073 316.855,212.468 309.254,221.068 312.185 M255.329 312.196 C 260.680 313.785,263.560 320.847,261.096 326.339 C 257.626 334.076,245.375 333.875,241.902 326.023 C 238.204 317.662,246.157 309.472,255.329 312.196 M287.087 312.703 C 287.939 313.555,288.186 313.656,288.478 313.271 C 290.292 310.881,294.629 311.154,296.166 313.755 C 296.684 314.633,296.759 315.757,296.790 323.126 L 296.825 331.500 294.246 331.597 L 291.667 331.695 291.662 324.764 C 291.657 317.214,291.567 316.452,290.643 316.159 C 288.788 315.570,288.667 316.063,288.667 324.178 L 288.667 331.667 286.000 331.667 L 283.333 331.667 283.333 324.357 C 283.333 316.749,283.199 316.000,281.833 316.000 C 280.468 316.000,280.333 316.749,280.333 324.357 L 280.333 331.667 277.667 331.667 L 275.000 331.667 275.000 321.833 L 275.000 312.000 277.667 312.000 L 280.333 312.000 280.341 312.917 L 280.348 313.833 280.924 313.127 C 282.428 311.282,285.458 311.073,287.087 312.703 M146.873 316.661 C 145.886 316.974,144.333 318.236,144.333 318.725 C 144.333 318.876,146.294 319.000,148.691 319.000 C 152.609 319.000,153.038 318.943,152.940 318.435 C 152.682 317.097,148.945 316.004,146.873 316.661 M215.540 316.661 C 214.552 316.974,213.000 318.236,213.000 318.725 C 213.000 318.876,214.961 319.000,217.358 319.000 C 221.276 319.000,221.705 318.943,221.607 318.435 C 221.349 317.097,217.611 316.004,215.540 316.661 M248.667 317.394 C 243.190 321.083,248.109 329.345,254.072 326.473 C 256.931 325.095,257.593 320.438,255.261 318.105 C 253.601 316.446,250.561 316.118,248.667 317.394 " stroke="none" fill="#040404" fill-rule="evenodd"></path><path id="path4" d="" stroke="none" fill="#10443c" fill-rule="evenodd"></path></g></svg>